{"title":"Icona Pop - All Night [Extended] 720p [Sbyky]","uid":9418740,"size":75087833,"categoryP":"video","categoryS":"music_videos","magnet":"?xt=urn:btih:0d36580bf076af60274dfc6c2daa9e0f0b1d082c&amp;dn=Icona+Pop+-+All+Night+%5BExtended%5D+720p+%5BSbyky%5D&amp;tr=udp%3A%2F%2Ftracker.openbittorrent.com%3A80&amp;tr=udp%3A%2F%2Fopen.demonii.com%3A1337&amp;tr=udp%3A%2F%2Ftracker.coppersurfer.tk%3A6969&amp;tr=udp%3A%2F%2Fexodus.desync.com%3A6969","seeders":2,"leechers":0,"uploader":"Sbyky","files":1,"time":1388512040,"description":"\n\nGeneral\nComplete name                            : Icona Pop - All Night [Extended] 720p [Sbyky].mp4\nFormat                                   : MPEG-4\nFormat profile                           : Base Media\nCodec ID                                 : isom\nFile size                                : 71.6 MiB\nDuration                                 : 5mn 53s\nOverall bit rate mode                    : Variable\nOverall bit rate                         : 1 700 Kbps\nEncoded date                             : UTC 2013-11-13 00:20:48\nTagged date                              : UTC 2013-11-13 00:20:48\n\nVideo\nID                                       : 1\nFormat                                   : AVC\nFormat/Info                              : Advanced Video Codec\nFormat profile                           : &lt;a class=&quot;__cf_email__&quot; href=&quot;/cdn-cgi/l/email-protection&quot; data-cfemail=&quot;e5a8848c8ba5a9d6cbd4&quot;&gt;[email&amp;#160;protected]&lt;/a&gt;&lt;script cf-hash='f9e31' type=&quot;text/javascript&quot;&gt;\n/* &lt;![CDATA[ */!function(){try{var t=&quot;currentScript&quot;in document?document.currentScript:function(){for(var t=document.getElementsByTagName(&quot;script&quot;),e=t.length;e--;)if(t[e].getAttribute(&quot;cf-hash&quot;))return t[e]}();if(t&amp;&amp;t.previousSibling){var e,r,n,i,c=t.previousSibling,a=c.getAttribute(&quot;data-cfemail&quot;);if(a){for(e=&quot;&quot;,r=parseInt(a.substr(0,2),16),n=2;a.length-n;n+=2)i=parseInt(a.substr(n,2),16)^r,e+=String.fromCharCode(i);e=document.createTextNode(e),c.parentNode.replaceChild(e,c)}}}catch(u){}}();/* ]]&gt; */&lt;/script&gt;\nFormat settings, CABAC                   : Yes\nFormat settings, ReFrames                : 3 frames\nCodec ID                                 : avc1\nCodec ID/Info                            : Advanced Video Coding\nDuration                                 : 5mn 53s\nBit rate                                 : 1 571 Kbps\nWidth                                    : 1 280 pixels\nHeight                                   : 720 pixels\nDisplay aspect ratio                     : 16:9\nFrame rate mode                          : Constant\nFrame rate                               : 23.976 fps\nColor space                              : YUV\nChroma subsampling                       : 4:2:0\nBit depth                                : 8 bits\nScan type                                : Progressive\nBits/(Pixel*Frame)                       : 0.071\nStream size                              : 66.2 MiB (92%)\nEncoded date                             : UTC 2013-11-13 00:20:48\nTagged date                              : UTC 2013-11-13 00:20:48\n\nAudio\nID                                       : 2\nFormat                                   : AAC\nFormat/Info                              : Advanced Audio Codec\nFormat profile                           : LC\nCodec ID                                 : 40\nDuration                                 : 5mn 53s\nBit rate mode                            : Variable\nBit rate                                 : 126 Kbps\nChannel(s)                               : 2 channels\nChannel positions                        : Front: L R\nSampling rate                            : 44.1 KHz\nCompression mode                         : Lossy\nDelay relative to video                  : 42ms\nStream size                              : 5.29 MiB (7%)\nEncoded date                             : UTC 2013-11-13 00:20:41\nTagged date                              : UTC 2013-11-13 00:20:41\n\nShared By Sbyky\n","torrent":{"xt":"urn:btih:0d36580bf076af60274dfc6c2daa9e0f0b1d082c","amp;dn":"Icona+Pop+-+All+Night+%5BExtended%5D+720p+%5BSbyky%5D","amp;tr":["udp%3A%2F%2Ftracker.openbittorrent.com%3A80","udp%3A%2F%2Fopen.demonii.com%3A1337","udp%3A%2F%2Ftracker.coppersurfer.tk%3A6969","udp%3A%2F%2Fexodus.desync.com%3A6969"],"infoHash":"0d36580bf076af60274dfc6c2daa9e0f0b1d082c","infoHashBuffer":{"type":"Buffer","data":[13,54,88,11,240,118,175,96,39,77,252,108,45,170,158,15,11,29,8,44]},"announce":[],"urlList":[]}}